<svg xmlns="http://www.w3.org/2000/svg" viewBox="0 0 414 498" width="414" height="498" role="img" aria-label="At a glance: AI Researcher · Ph.D. Student; Computer Science, Jeonbuk National University, Natural Language Learning Lab; Jeonju, Republic of Korea."><title>At a glance: AI Researcher · Ph.D. Student; Computer Science, Jeonbuk National University, Natural Language Learning Lab; Jeonju, Republic of Korea.</title><defs><filter id="shadow-sm" x="-30%" y="-30%" width="160%" height="180%"><feDropShadow dx="0" dy="2" stdDeviation="3" flood-color="rgb(124,76,44)" flood-opacity="0.14"/></filter><filter id="shadow-md" x="-30%" y="-30%" width="160%" height="180%"><feDropShadow dx="0" dy="5" stdDeviation="6" flood-color="rgb(124,76,44)" flood-opacity="0.18"/></filter><filter id="shadow-lg" x="-30%" y="-30%" width="160%" height="180%"><feDropShadow dx="0" dy="10" stdDeviation="12" flood-color="rgb(124,76,44)" flood-opacity="0.24"/></filter><clipPath id="c0"><path d="M42,10H372A30,30 0 0 1 402,40V448A30,30 0 0 1 372,478H42A30,30 0 0 1 12,448V40A30,30 0 0 1 42,10Z"/></clipPath><path id="g2" d="m688-96q12 24 13 42q1 18-11 31q-11 13-37 27q-40 19-62 11q-22-8-41-48l-196-410l-195 410q-20 39-42 47q-21 7-61-11q-26-13-38-26q-11-14-10-32q1-18 14-44l263-547q10-20 29-32q20-12 41-12q15 0 28 5q13 6 23 16q11 10 18 24l264 549zm-502-58l62-129l213 0l62 129l-337 0z"/><path id="g3" d="m298 10q-51 0-88-11q-36-11-60-34q-24-23-36-59q-11-36-11-84l0-406q0-21 4-37q3-16 19-26q16-10 52-10q36 0 52 10q16 11 19 28q4 18 4 37l0 397q0 16 3 27q2 10 7 15q5 5 14 7q9 3 22 3q22 0 39 3q17 4 27 18q9 14 9 47q0 37-11 52q-11 16-29 19q-17 4-36 4zm-226-493l110 1l138-5q19 0 36 4q17 4 28 19q11 16 11 53q0 34-11 50q-10 16-27 20q-17 5-37 5l-131-3l-121 1q-29-2-40-19q-12-16-12-55q0-36 14-53q14-18 42-18z"/><path id="g4" d="m449 8q-37 0-55-13q-17-13-17-32l10-17q-6 10-23 25q-17 14-44 26q-27 11-67 11q-46 0-87-20q-42-20-74-55q-32-35-51-80q-18-45-18-96q0-49 18-93q19-44 51-79q33-35 74-55q41-20 87-20q37 0 63 11q26 10 44 24q17 15 26 28l-8-15q-1-23 17-36q17-13 55-13q36 0 52 11q15 11 18 29q4 18 4 38l0 345q0 20-4 37q-3 18-19 28q-15 11-52 11zm-174-149q26 0 47-13q22-14 34-37q13-23 13-50q0-30-13-52q-13-23-35-36q-22-13-48-13q-29 0-52 13q-22 14-36 37q-13 23-13 52q0 27 14 50q13 22 37 36q23 13 52 13z"/><path id="g5" d="m266 215q-35 0-70-9q-35-9-64-24q-29-15-46-32q-17-17-17-33q0-17 6-31q6-13 18-26q14-15 24-23q10-8 24-8q14 0 25 8q11 7 23 16q13 10 32 17q19 8 48 8q21 0 38-8q17-8 30-22q13-15 20-34q7-20 7-44l0-413q3-27 20-38q18-11 54-11q36 0 50 10q15 10 19 27q3 17 3 36l0 395q0 57-21 102q-21 44-56 75q-35 30-78 46q-43 16-89 16zm-18-219q-45 0-86-19q-40-19-72-53q-31-34-49-78q-18-44-18-94q0-49 18-92q18-44 49-78q32-33 73-53q40-19 85-19q44 0 75 17q31 18 50 51q20 32 29 77q9 45 9 99q0 74-16 129q-16 54-52 83q-36 30-95 30zm18-145q26 0 47-13q21-13 33-36q13-22 13-49q0-29-13-51q-12-22-34-35q-21-13-48-13q-27 0-48 13q-21 14-33 36q-13 22-13 50q0 27 13 49q13 23 34 36q22 13 49 13z"/><path id="g6" d="m233 10q-41 0-73-5q-31-4-54-16q-22-12-36-34q-14-21-21-55q-6-33-6-81l0-463q0-20 3-37q4-17 20-28q16-11 52-11q36 0 52 11q15 11 19 28q4 17 4 37l0 455q0 17 1 27q2 11 7 16q4 6 12 8q8 2 21 2q12 0 25 3q12 3 21 18q9 15 9 50q0 36-9 52q-9 16-22 19q-12 4-25 4z"/><path id="g7" d="m116 9q-37 0-52-11q-16-11-19-29q-4-17-4-36l0-352q0-19 4-35q4-17 19-27q16-10 53-10q32 0 47 9q15 8 20 20q4 12 4 22q0 11 2 15l-6 19q2-15 16-30q13-15 33-28q21-12 44-20q24-7 47-7q48 0 85 18q38 18 64 50q26 33 39 77q14 45 14 98l0 182q0 19-4 36q-3 18-19 28q-15 11-52 11q-38 0-54-11q-15-11-19-29q-4-17-4-36l0-181q0-30-10-51q-10-21-30-32q-20-11-49-11q-29 0-50 11q-21 12-32 33q-12 21-12 50l0 182q0 19-4 36q-3 18-19 28q-15 11-52 11z"/><path id="g8" d="m288 13q-44 0-90-16q-45-17-83-49q-39-32-62-80q-23-48-23-110q0-61 23-109q23-47 61-79q38-32 83-49q46-16 89-16q37 0 67 9q29 9 50 20q20 12 29 22q17 12 30 25q13 13 12 34q-1 12-7 23q-6 11-15 24q-30 41-60 37q-15-3-27-10q-13-7-24-14q-12-7-25-13q-13-5-30-5q-29 0-52 13q-23 14-36 36q-14 23-14 53q0 29 14 52q13 24 36 37q22 13 50 13q17 0 29-4q13-3 22-9q9-5 14-9q12-8 23-14q11-7 23-7q14 0 29 11q15 10 33 33q16 21 18 39q3 18-8 34q-11 17-34 31q-8 7-28 18q-21 11-50 20q-30 9-67 9z"/><path id="g9" d="m289 18q-70 0-120-23q-51-22-83-60q-32-38-48-84q-15-46-15-92q0-75 34-133q34-58 94-91q60-33 138-33q58 0 100 18q43 19 70 48q28 29 42 63q13 34 13 65q0 55-26 82q-27 27-68 27l-238 0q2 25 19 43q16 18 41 28q25 10 53 10q24 0 42-3q18-2 31-7q13-4 24-8q11-5 19-8q9-3 17-4q15 0 27 9q13 9 23 28q7 12 9 22q3 10 3 19q0 25-24 43q-25 19-69 30q-45 11-108 11zm-107-296l158 0q16 0 23-6q8-5 8-20q0-18-11-32q-11-14-29-21q-19-8-43-8q-31 0-55 12q-24 12-38 32q-13 20-13 43z"/><path id="gb" d="m141 8q-31 0-47-17q-17-18-17-49l0-582q0-32 17-48q17-17 48-17l241 0q116 0 179 56q63 55 63 155q0 65-28 112q-29 47-83 72q-54 25-131 25l9-15l33 0q41 0 72 20q30 20 53 63l75 139q12 21 11 41q-1 20-15 33q-14 12-41 12q-27 0-44-11q-17-12-30-36l-101-186q-18-34-42-45q-25-12-63-12l-95 0l0 224q0 31-16 49q-16 17-48 17zm64-385l156 0q69 0 105-28q35-29 35-86q0-56-35-84q-36-29-105-29l-156 0l0 227z"/><path id="gc" d="m288 10q-76 0-132-31q-56-31-87-88q-31-58-31-136q0-59 18-105q17-47 50-80q33-34 79-51q46-18 103-18q76 0 132 31q56 31 87 88q31 57 31 135q0 59-17 106q-18 47-51 81q-33 33-79 51q-46 17-103 17zm0-95q37 0 65-18q28-18 44-53q15-36 15-89q0-80-34-119q-34-40-90-40q-37 0-65 18q-28 17-43 53q-16 35-16 88q0 79 34 120q34 40 90 40z"/><path id="gd" d="m232 10q-83 0-125-47q-42-48-42-140l0-473q0-31 16-47q16-16 46-16q30 0 47 16q16 16 16 47l0 467q0 46 20 68q19 22 55 22q8 0 15 0q7-1 14-2q14-2 19 8q5 9 5 38q0 25-10 39q-10 14-33 17q-10 1-21 2q-11 1-22 1z"/><path id="ge" d="m306 10q-83 0-143-31q-60-31-92-88q-33-57-33-135q0-76 32-133q31-57 87-89q55-33 126-33q52 0 94 17q41 17 71 49q29 32 45 78q15 45 15 102q0 18-12 28q-13 9-36 9l-321 0l0-72l281 0l-16 15q0-46-13-77q-14-31-39-47q-26-17-64-17q-42 0-71 20q-30 19-45 55q-16 35-16 84l0 7q0 82 39 123q38 40 113 40q26 0 59-6q32-7 61-23q21-12 37-10q16 1 26 11q9 10 11 25q2 14-5 29q-8 15-26 26q-35 22-80 33q-46 10-85 10z"/><path id="gf" d="m78 7q-20 0-32-9q-12-9-14-24q-2-15 6-34l271-608q10-24 25-34q16-10 35-10q18 0 33 10q16 10 26 34l271 608q9 19 7 35q-2 15-13 24q-11 8-31 8q-22 0-35-11q-13-11-23-34l-70-162l47 28l-426 0l46-28l-69 162q-10 24-22 35q-12 10-32 10zm289-597l-151 358l-25-24l353 0l-23 24l-152-358l-2 0z"/><path id="gg" d="m134 7q-25 0-38-14q-14-14-14-39l0-613q0-26 14-40q13-13 38-13q25 0 38 13q14 14 14 40l0 613q0 25-13 39q-13 14-39 14z"/><path id="gh" d="m134 7q-25 0-38-14q-14-14-14-39l0-606q0-26 14-40q14-13 39-13l239 0q114 0 176 54q62 54 62 153q0 64-28 110q-28 46-81 70q-54 24-129 24l9-14l26 0q40 0 70 20q29 20 53 64l86 160q10 18 9 34q0 17-12 27q-11 10-32 10q-22 0-36-9q-13-10-24-29l-105-194q-21-39-48-53q-27-13-71-13l-113 0l0 245q0 25-13 39q-13 14-39 14zm52-376l171 0q76 0 115-32q39-32 39-95q0-62-39-94q-39-32-115-32l-171 0l0 253z"/><path id="gi" d="m300 9q-80 0-137-30q-58-31-89-88q-32-56-32-134q0-76 31-133q31-57 85-89q54-32 123-32q51 0 91 17q40 16 68 48q29 31 44 76q14 45 14 101q0 17-10 25q-10 9-30 9l-336 0l0-62l308 0l-17 14q0-50-15-85q-14-35-43-53q-28-19-70-19q-47 0-80 22q-32 22-49 61q-17 39-17 91l0 6q0 88 41 132q42 45 121 45q30 0 63-8q34-8 64-27q17-10 30-9q14 1 22 9q9 8 11 20q2 12-4 24q-6 13-21 23q-34 23-79 35q-45 11-87 11z"/><path id="gj" d="m242 9q-44 0-91-10q-46-10-85-34q-13-9-18-20q-5-11-4-23q2-11 9-19q8-9 19-11q12-2 25 5q39 22 75 30q36 9 71 9q53 0 80-19q27-19 27-51q0-26-18-41q-18-14-54-22l-95-19q-62-13-94-46q-32-33-32-84q0-46 25-80q25-34 70-53q45-18 104-18q44 0 83 11q39 11 72 33q13 7 17 18q4 12 2 23q-3 11-11 20q-8 8-19 10q-12 1-26-6q-30-19-60-27q-29-8-58-8q-53 0-79 20q-27 19-27 52q0 25 16 41q16 16 50 23l95 19q65 13 99 44q33 31 33 84q0 69-55 109q-55 40-146 40z"/><path id="gk" d="m227 9q-51 0-91-20q-41-20-64-54q-23-34-23-77q0-54 28-85q27-32 91-45q63-14 171-14l47 0l0 62l-46 0q-72 0-114 7q-42 7-60 23q-17 17-17 46q0 38 26 62q26 23 72 23q37 0 65-17q28-18 44-48q17-30 17-69l0-115q0-57-24-82q-24-25-79-25q-32 0-66 8q-35 8-72 27q-17 8-29 5q-12-3-19-13q-7-11-7-23q-1-13 6-25q6-12 22-18q44-21 87-30q43-9 81-9q67 0 110 21q44 21 65 64q21 43 21 111l0 257q0 24-12 38q-12 13-35 13q-22 0-35-13q-13-14-13-38l0-65l9 0q-8 37-29 63q-22 27-54 41q-32 14-73 14z"/><path id="gl" d="m122 7q-25 0-38-13q-13-14-13-38l0-400q0-25 13-38q13-13 36-13q24 0 37 13q12 13 12 38l0 73l-10 0q16-60 59-91q43-31 110-36q18-1 28 9q11 10 12 31q2 21-9 33q-11 13-34 15l-19 2q-65 6-99 41q-34 35-34 96l0 227q0 24-13 38q-12 13-38 13z"/><path id="gm" d="m286 9q-75 0-129-31q-55-32-85-90q-30-57-30-135q0-58 17-104q17-47 49-79q31-32 77-50q45-17 101-17q35 0 73 10q39 11 72 35q13 8 17 20q3 11 1 23q-3 12-11 21q-9 8-21 10q-12 1-26-7q-24-17-49-24q-25-8-48-8q-36 0-64 12q-27 11-46 33q-19 21-29 53q-9 32-9 73q0 82 38 129q39 46 110 46q23 0 48-7q25-7 49-24q14-8 26-6q12 2 19 10q8 9 10 21q3 11-1 23q-4 12-17 20q-32 23-70 33q-37 10-72 10z"/><path id="gn" d="m121 7q-24 0-37-13q-13-14-13-38l0-617q0-25 13-38q13-13 37-13q24 0 37 13q14 13 14 38l0 277l-14 0q22-56 69-84q47-29 108-29q58 0 97 22q38 21 57 65q19 43 19 109l0 257q0 24-13 38q-13 13-37 13q-25 0-38-13q-13-14-13-38l0-251q0-63-25-92q-24-29-76-29q-61 0-98 38q-36 38-36 102l0 232q0 51-51 51z"/><path id="go" d="m120-204q-29 0-47-17q-18-18-18-46q0-28 18-45q18-18 47-18q29 0 46 18q17 17 17 45q0 28-17 46q-17 17-46 17z"/><path id="gp" d="m134 7q-25 0-38-14q-14-14-14-39l0-606q0-26 14-40q14-13 39-13l239 0q114 0 176 57q62 56 62 158q0 103-62 160q-62 56-176 56l-188 0l0 228q0 25-13 39q-13 14-39 14zm52-364l173 0q75 0 114-33q38-34 38-100q0-65-38-98q-39-34-114-34l-173 0l0 265z"/><path id="gq" d="m120 4q-29 0-47-18q-18-18-18-46q0-28 18-45q18-18 47-18q29 0 46 18q17 17 17 45q0 28-17 46q-17 18-46 18z"/><path id="gr" d="m138 0q-27 0-41-14q-15-15-15-42l0-593q0-27 15-42q14-14 41-14l193 0q174 0 269 91q94 90 94 261q0 85-24 151q-24 66-70 110q-47 45-114 69q-67 23-155 23l-193 0zm48-87l139 0q66 0 115-16q48-17 81-50q33-33 49-83q16-50 16-117q0-133-65-199q-66-66-196-66l-139 0l0 531z"/><path id="gs" d="m317 9q-46 0-90-7q-44-7-83-22q-39-14-70-35q-15-11-20-25q-6-14-4-28q3-13 12-23q9-10 22-12q13-3 29 8q45 29 95 42q50 14 109 14q85 0 125-31q41-30 41-79q0-40-29-63q-29-24-97-38l-107-22q-95-20-141-66q-47-46-47-124q0-47 20-86q19-39 54-68q35-28 84-43q49-15 107-15q62 0 116 16q55 16 98 49q13 9 18 23q4 13 2 26q-3 13-12 22q-9 9-23 10q-14 2-31-9q-39-26-80-37q-40-12-89-12q-49 0-85 15q-37 15-56 42q-20 27-20 64q0 42 27 67q27 25 90 38l106 22q100 21 149 65q49 44 49 117q0 47-19 84q-19 38-54 65q-35 27-85 42q-49 14-111 14z"/><path id="gt" d="m279 9q-60 0-101-21q-41-21-61-62q-20-41-20-100l0-236l-60 0q-20 0-31-11q-11-10-11-28q0-19 11-29q11-10 31-10l60 0l0-103q0-25 14-38q13-13 37-13q24 0 37 13q13 13 13 38l0 103l117 0q20 0 31 10q11 10 11 29q0 18-11 28q-11 11-31 11l-117 0l0 228q0 53 23 80q22 27 73 27q18 0 32-4q13-3 22-4q11 0 18 7q7 8 7 29q0 15-6 28q-5 13-19 17q-12 4-33 8q-20 3-36 3z"/><path id="gu" d="m245 9q-59 0-99-22q-39-22-59-66q-19-43-19-109l0-256q0-26 13-38q13-13 37-13q24 0 38 13q13 12 13 38l0 257q0 59 24 87q24 28 76 28q57 0 92-38q36-39 36-102l0-232q0-26 13-38q13-13 38-13q24 0 37 13q13 12 13 38l0 400q0 51-49 51q-23 0-36-13q-13-14-13-38l0-85l13 22q-20 56-64 86q-44 30-104 30z"/><path id="gv" d="m257 9q-64 0-112-30q-49-31-76-88q-27-58-27-135q0-79 27-135q27-56 75-87q49-31 113-31q64 0 110 32q47 31 63 84l-11 0l0-280q0-25 13-38q13-13 37-13q24 0 38 13q13 13 13 38l0 617q0 24-13 38q-13 13-37 13q-24 0-37-13q-13-14-13-38l0-88l11 22q-16 54-62 87q-47 32-112 32zm26-78q41 0 72-20q31-20 49-59q17-39 17-96q0-86-38-130q-38-44-100-44q-42 0-73 19q-31 20-49 59q-17 39-17 96q0 85 38 130q38 45 101 45z"/><path id="gw" d="m121 7q-24 0-37-13q-13-14-13-38l0-400q0-25 13-38q13-13 36-13q24 0 37 13q12 13 12 38l0 78l-11-18q22-56 69-84q47-29 108-29q58 0 97 21q38 22 57 65q19 44 19 110l0 257q0 24-13 38q-13 13-37 13q-25 0-38-13q-13-14-13-38l0-251q0-63-25-92q-24-29-76-29q-61 0-98 38q-36 38-36 102l0 232q0 51-51 51z"/><path id="gy" d="m84 8q-24 0-38-11q-15-11-18-29q-3-19 7-42l264-585q13-29 32-41q18-13 42-13q23 0 42 13q18 12 31 41l265 585q11 23 8 42q-3 19-17 30q-14 10-37 10q-28 0-43-13q-16-14-28-42l-65-151l54 35l-422 0l54-35l-64 151q-13 29-27 42q-14 13-40 13zm287-574l-140 333l-26-32l334 0l-25 32l-141-333l-2 0z"/><path id="gz" d="m161 8q-30 0-46-16q-17-17-17-48l0-339l-46 0q-24 0-37-12q-13-13-13-35q0-23 13-35q13-12 37-12l82 0l-36 33l0-34q0-103 52-154q52-52 150-61l34-3q20-2 32 7q12 8 16 22q4 13 1 27q-3 14-12 25q-10 10-25 11l-14 1q-57 4-83 29q-26 25-26 76l0 37l-16-16l101 0q24 0 37 12q13 12 13 35q0 22-13 35q-13 12-37 12l-85 0l0 339q0 64-62 64z"/><path id="g10" d="m161 8q-30 0-46-16q-17-17-17-48l0-339l-46 0q-24 0-37-12q-13-13-13-35q0-23 13-35q13-12 37-12l82 0l-36 33l0-34q0-101 51-153q51-52 148-62l30-3q23-2 37 6q13 8 18 22q4 13 1 28q-3 14-12 25q-9 10-23 11l-24 2q-53 4-77 29q-24 25-24 75l0 37l-16-16l277 0q30 0 46 18q16 17 16 49l0 361q0 32-15 50q-16 18-47 18q-30 0-46-18q-17-18-17-50l0-334l-198 0l0 339q0 64-62 64zm325-597q-34 0-52-17q-19-18-19-49q0-32 19-49q18-17 52-17q35 0 54 17q18 17 18 49q0 31-18 49q-19 17-54 17z"/><path id="g11" d="m127 7q-30 0-46-18q-16-18-16-50l0-367q0-33 16-50q16-18 46-18q30 0 47 18q16 17 16 50l0 367q0 32-16 50q-16 18-47 18zm0-596q-35 0-54-17q-20-18-20-49q0-32 20-49q19-17 54-17q36 0 55 17q19 17 19 49q0 31-19 49q-19 17-55 17z"/><path id="g12" d="m226 10q-53 0-94-20q-42-21-65-56q-24-35-24-79q0-54 28-85q28-32 91-46q63-14 169-14l50 0l0 72l-49 0q-62 0-99 6q-37 6-52 21q-16 14-16 40q0 33 23 54q23 21 64 21q33 0 59-15q25-16 40-43q15-27 15-62l0-115q0-50-22-72q-22-22-74-22q-29 0-62 7q-34 7-71 24q-19 9-33 5q-15-4-23-16q-8-13-8-28q0-15 8-29q8-15 27-22q46-19 89-27q42-8 77-8q72 0 119 22q46 22 69 67q23 44 23 114l0 240q0 31-15 48q-15 16-43 16q-28 0-43-16q-16-17-16-48l0-48l8 0q-7 35-27 61q-21 25-52 39q-31 14-71 14z"/><path id="g13" d="m289 10q-65 0-108-22q-44-22-65-64q-21-43-21-106l0-213l-52 0q-24 0-37-12q-13-13-13-35q0-23 13-35q13-12 37-12l52 0l0-91q0-31 17-47q16-16 46-16q30 0 46 16q16 16 16 47l0 91l106 0q24 0 37 12q13 12 13 35q0 22-13 35q-13 12-37 12l-106 0l0 206q0 48 21 72q21 24 68 24q17 0 30-3q13-3 23-4q12-1 20 8q8 8 8 34q0 20-6 36q-7 15-24 21q-13 4-34 8q-21 3-37 3z"/><path id="g14" d="m127 8q-30 0-46-16q-16-17-16-48l0-378q0-31 16-47q16-16 45-16q29 0 45 16q16 16 16 47l0 68l-11-25q22-53 69-80q46-28 105-28q59 0 97 22q38 22 57 67q19 44 19 112l0 242q0 31-16 48q-16 16-46 16q-30 0-46-16q-17-17-17-48l0-236q0-57-21-83q-22-26-67-26q-55 0-87 35q-33 34-33 91l0 219q0 64-63 64z"/><path id="g15" d="m398 9q-107 0-183-44q-76-44-117-125q-40-82-40-193q0-83 23-150q23-66 67-113q43-48 107-73q63-25 143-25q59 0 113 16q55 16 95 46q17 11 23 26q5 16 2 30q-4 14-14 23q-10 10-26 11q-15 1-33-11q-33-25-73-37q-40-12-84-12q-76 0-128 32q-52 31-79 91q-27 60-27 146q0 86 27 146q27 61 79 92q52 32 128 32q44 0 85-13q40-12 76-37q18-11 32-10q15 1 25 10q10 9 13 22q4 14-1 28q-4 15-19 25q-41 33-97 50q-56 17-117 17z"/><path id="g16" d="m283 9q-74 0-127-31q-54-31-84-88q-30-57-30-134q0-59 17-105q17-46 49-80q31-33 76-50q44-18 99-18q73 0 126 31q54 31 84 88q30 56 30 134q0 58-17 105q-17 47-49 80q-31 33-75 51q-45 17-99 17zm0-78q41 0 72-20q31-20 49-59q17-39 17-96q0-86-38-130q-38-44-100-44q-42 0-73 19q-31 20-49 59q-17 39-17 96q0 85 38 130q38 45 101 45z"/><path id="g17" d="m123 7q-24 0-37-13q-13-14-13-38l0-400q0-25 13-38q13-13 36-13q24 0 37 13q12 13 12 38l0 82l-11-22q20-53 62-83q42-30 101-30q61 0 99 29q38 29 52 89l-14 0q19-55 65-86q46-32 107-32q56 0 92 22q36 21 54 65q18 43 18 109l0 257q0 24-14 38q-13 13-37 13q-24 0-37-13q-13-14-13-38l0-252q0-62-21-91q-22-29-71-29q-55 0-87 38q-32 38-32 105l0 229q0 24-13 38q-13 13-37 13q-24 0-37-13q-14-14-14-38l0-252q0-62-21-91q-21-29-70-29q-55 0-86 38q-32 38-32 105l0 229q0 51-51 51z"/><path id="g18" d="m121 187q-24 0-37-13q-13-13-13-38l0-580q0-25 13-38q13-13 36-13q24 0 37 13q13 13 13 38l0 87l-11-21q16-54 63-87q47-32 111-32q65 0 113 31q49 31 76 87q26 56 26 135q0 77-26 135q-27 57-75 88q-48 30-114 30q-63 0-110-32q-47-32-63-85l12 0l0 244q0 25-14 38q-13 13-37 13zm187-256q42 0 73-20q31-20 48-59q17-39 17-96q0-86-37-130q-38-44-101-44q-41 0-73 19q-31 20-48 59q-17 39-17 96q0 85 38 130q38 45 100 45z"/><path id="g19" d="m121 6q-24 0-37-15q-13-14-13-40l0-390q0-26 13-40q13-14 37-14q24 0 37 14q14 14 14 40l0 390q0 26-13 40q-13 15-38 15zm0-603q-30 0-46-15q-17-15-17-42q0-28 17-42q16-15 46-15q30 0 47 15q16 14 16 42q0 27-16 42q-17 15-47 15z"/><path id="g1a" d="m131 101q-11 14-23 16q-13 2-22-5q-9-7-10-19q-1-13 11-28q18-22 24-45q7-24 7-42l4 26q-30 0-48-17q-19-18-19-47q0-28 17-45q17-18 46-18q30 0 47 20q18 21 18 59q0 22-5 46q-4 24-15 49q-11 25-32 50z"/><path id="g1b" d="m36 6q-23 1-36-12q-13-13-13-33q0-15 9-27q10-12 28-13l31-2q48-4 73-32q25-29 25-80l0-467q0-26 13-39q13-13 38-13q25 0 38 13q14 13 14 39l0 467q0 60-21 103q-22 42-63 66q-41 24-102 28l-34 2z"/><path id="g1c" d="m333 9q-64 0-111-32q-47-33-63-87l11-18l0 84q0 24-13 38q-13 13-36 13q-24 0-37-13q-13-14-13-38l0-617q0-25 13-38q13-13 37-13q24 0 37 13q14 13 14 38l0 280l-12 0q16-53 63-84q47-32 110-32q66 0 114 31q48 31 75 87q26 56 26 135q0 77-26 135q-27 57-76 88q-48 30-113 30zm-25-78q42 0 73-20q31-20 48-59q17-39 17-96q0-86-37-130q-38-44-101-44q-41 0-73 19q-31 20-48 59q-17 39-17 96q0 85 38 130q38 45 100 45z"/><path id="g1d" d="m121 7q-24 0-37-13q-13-14-13-38l0-617q0-25 13-38q13-13 37-13q24 0 37 13q14 13 14 38l0 386l2 0l187-186q16-16 29-25q13-9 34-9q21 0 32 11q11 11 11 26q0 16-15 32l-198 196l0-47l216 215q16 16 15 32q-1 16-13 27q-12 10-30 10q-23 0-37-9q-13-9-31-27l-200-194l-2 0l0 179q0 51-51 51z"/><path id="g1e" d="m131 7q-23 0-36-13q-13-13-13-37l0-617q0-25 13-39q12-13 33-13q18 0 28 6q9 7 22 24l412 543l-25 0l0-524q0-23 13-36q12-13 35-13q24 0 36 13q12 13 12 36l0 621q0 23-11 36q-12 13-31 13q-18 0-30-7q-11-7-24-24l-410-542l23 0l0 523q0 24-12 37q-12 13-35 13z"/><path id="g1f" d="m228 9q-78 0-117-45q-40-46-40-132l0-493q0-25 13-38q13-13 37-13q24 0 37 13q14 13 14 38l0 487q0 50 21 74q20 25 59 25q9 0 16-1q7 0 14-1q12-1 17 6q5 8 5 31q0 21-9 32q-9 12-29 15q-9 1-19 2q-10 0-19 0z"/><path id="g1g" d="m367 9q-71 0-125-18q-54-19-91-56q-36-37-55-92q-19-55-19-127l0-376q0-26 14-39q13-13 38-13q25 0 38 13q14 13 14 39l0 374q0 103 47 154q48 51 139 51q92 0 139-51q47-51 47-154l0-374q0-26 13-39q14-13 38-13q25 0 38 13q13 13 13 39l0 376q0 96-32 162q-33 65-97 98q-64 33-159 33z"/><path id="g1h" d="m260 7q-21 0-37-11q-15-11-25-34l-167-388q-8-18-6-34q2-16 15-25q13-10 35-10q19 0 30 9q11 9 20 31l151 372l-28 0l154-372q9-22 20-31q12-9 33-9q18 0 29 10q10 9 13 25q2 15-6 33l-169 389q-9 23-25 34q-16 11-37 11z"/><path id="g1i" d="m186 187q-18 0-29-9q-12-10-13-26q-2-15 5-33l68-153l0 43l-187-435q-7-18-5-34q2-16 15-25q13-10 35-10q19 0 30 9q11 9 20 31l151 373l-28 0l153-373q9-23 21-31q12-9 33-9q18 0 29 10q10 9 13 25q2 15-6 33l-250 575q-10 23-23 31q-12 8-32 8z"/><path id="g1j" d="m135 0q-25 0-39-14q-14-14-14-39l0-603q0-26 14-40q13-13 38-13q25 0 38 13q14 14 14 40l0 567l310 0q22 0 34 12q12 11 12 32q0 21-12 33q-12 12-34 12l-361 0z"/><path id="g1k" d="m292 189q-54 0-104-11q-51-11-92-36q-15-8-20-20q-5-11-2-23q2-12 10-21q8-9 20-12q11-3 24 4q44 24 83 32q40 9 74 9q70 0 105-36q35-35 35-104l0-102l9 0q-15 55-63 87q-48 32-111 32q-66 0-115-30q-49-31-76-86q-27-54-27-127q0-55 16-99q15-44 44-76q28-32 68-49q41-18 90-18q64 0 112 32q47 32 61 87l-10 17l0-83q0-25 13-38q14-13 37-13q24 0 37 13q13 13 13 38l0 403q0 114-59 172q-59 58-172 58zm-8-280q44 0 75-20q31-20 48-57q17-37 17-87q0-75-38-119q-37-44-102-44q-43 0-74 20q-31 20-49 56q-17 37-17 87q0 76 38 120q38 44 102 44z"/><path id="g1m" d="m142 0q-31 0-48-17q-17-18-17-49l0-577q0-32 17-48q16-17 47-17q31 0 48 17q16 16 16 48l0 534l290 0q27 0 42 14q14 14 14 40q0 26-14 41q-15 14-42 14l-353 0z"/><path id="g1n" d="m291 10q-77 0-134-31q-57-32-88-90q-31-58-31-136q0-59 18-105q17-47 50-79q33-33 80-50q47-18 105-18q33 0 72 9q38 9 72 30q16 10 21 24q5 14 2 29q-3 14-12 25q-10 10-24 13q-14 2-31-7q-22-13-45-19q-23-7-44-7q-33 0-58 11q-25 10-42 30q-18 19-27 48q-9 29-9 67q0 74 36 117q35 42 100 42q21 0 44-6q22-6 45-19q17-9 31-6q13 3 22 14q9 10 11 25q2 14-3 28q-6 14-21 23q-33 20-70 29q-37 9-70 9z"/><clipPath id="c1o"><path d="M86.5,258.38H86.5A8.5,8.5 0 0 1 95,266.88V266.88A8.5,8.5 0 0 1 86.5,275.38H86.5A8.5,8.5 0 0 1 78,266.88V266.88A8.5,8.5 0 0 1 86.5,258.38Z"/></clipPath><path id="g1q" d="m-7 190q-18 1-30-6q-11-7-16-18q-4-11-2-22q1-12 9-20q9-9 23-10q50-3 74-27q23-24 23-76l0-455q0-25 14-38q13-13 37-13q25 0 38 13q12 13 12 38l0 447q0 62-20 103q-21 40-61 60q-40 20-101 24zm132-787q-30 0-46-15q-17-15-17-42q0-28 17-42q16-15 46-15q30 0 46 15q16 14 16 42q0 27-16 42q-16 15-46 15z"/><path id="g1r" d="m151 7q-24 0-38-13q-13-14-13-38l0-366l-56 0q-19 0-30-11q-11-10-11-28q0-19 11-29q11-10 30-10l85 0l-29 27l0-36q0-99 49-150q49-50 143-59l31-2q17-2 27 5q10 7 13 18q3 11 1 23q-3 11-11 20q-8 9-20 10l-19 1q-59 5-86 34q-27 28-27 86l0 39l-14-16l111 0q21 0 32 10q10 10 10 29q0 18-10 28q-11 11-32 11l-97 0l0 366q0 51-50 51z"/><path id="g1s" d="m134 7q-25 0-38-14q-14-14-14-39l0-614q0-26 14-39q13-13 38-13q25 0 38 13q14 13 14 39l0 272l2 0l307-297q15-14 28-21q14-6 31-6q23 0 33 11q11 12 9 28q-2 16-17 31l-319 304l2-51l332 320q18 17 19 35q1 18-11 30q-12 11-34 11q-20 0-32-8q-12-8-28-23l-320-305l-2 0l0 283q0 25-13 39q-13 14-39 14z"/><path id="g1u" d="m293 190q-54 0-104-10q-51-10-92-31q-19-10-25-24q-7-14-4-28q2-15 12-26q9-11 23-15q14-4 29 4q44 22 84 29q39 6 67 6q67 0 101-32q33-33 33-97l0-90l9 0q-15 51-62 82q-48 30-108 30q-66 0-115-30q-49-31-76-86q-27-55-27-128q0-55 16-99q15-45 44-77q28-32 69-49q40-18 89-18q62 0 109 31q46 30 60 80l-10 25l0-71q0-31 17-47q16-16 45-16q30 0 46 16q16 16 16 47l0 385q0 119-63 179q-63 60-183 60zm-3-297q39 0 67-18q28-18 44-51q15-34 15-80q0-69-34-108q-34-40-92-40q-39 0-67 18q-28 18-43 51q-16 33-16 79q0 69 34 109q34 40 92 40z"/><path id="age-0" d="m300 11q-128 0-195-95q-68-96-68-271q0-117 30-198q31-80 89-121q59-42 144-42q129 0 196 93q67 92 67 268q0 117-30 198q-31 82-89 125q-58 43-144 43zm0-126q58 0 86-58q28-57 28-182q0-125-28-180q-28-55-86-55q-58 0-86 55q-28 55-28 180q0 125 28 182q28 58 86 58z"/><path id="age-1" d="m157 0q-32 0-49-17q-17-17-17-47q0-31 17-47q17-16 49-16l101 0l0-451l73 0l-146 89q-23 14-43 11q-19-3-33-17q-14-14-18-33q-5-20 3-39q8-20 30-34l139-84q21-13 42-21q22-8 43-8q30 0 47 16q18 15 18 47l0 524l91 0q31 0 48 16q17 16 17 47q0 31-17 47q-17 17-48 17l-347 0z"/><path id="age-2" d="m138 0q-37 0-54-17q-18-18-18-52q0-22 11-41q11-19 30-39l188-198q42-45 61-80q18-35 18-70q0-44-28-67q-29-23-83-23q-29 0-59 8q-31 9-64 28q-22 12-40 9q-19-4-32-18q-13-13-17-32q-4-19 4-38q8-19 30-32q44-27 96-41q52-13 103-13q79 0 133 24q54 23 82 68q28 45 28 110q0 42-13 82q-13 40-41 80q-27 41-72 87l-175 178l0-40l271 0q32 0 48 16q17 16 17 47q0 31-17 47q-16 17-48 17l-359 0z"/><path id="age-3" d="m283 11q-53 0-108-12q-54-13-94-36q-26-14-36-33q-9-20-7-39q3-19 16-34q13-14 34-18q20-4 45 8q39 19 74 27q35 8 70 8q40 0 67-10q27-11 41-31q14-20 14-50q0-42-29-63q-29-21-85-21l-59 0q-33 0-50-16q-18-17-18-46q0-30 18-47q17-16 50-16l44 0q34 0 57-10q24-11 37-30q14-19 14-47q0-40-28-61q-27-21-79-21q-32 0-63 8q-31 7-67 26q-22 11-41 7q-19-4-31-18q-13-14-16-33q-4-18 5-37q8-19 31-31q43-25 93-38q51-13 103-13q76 0 130 23q54 23 83 65q29 43 29 103q0 41-16 75q-16 34-45 58q-28 23-69 33l0-13q71 12 111 59q40 47 40 118q0 63-32 110q-32 46-92 71q-59 25-141 25z"/><path id="age-4" d="m410 9q-36 0-57-20q-20-20-20-58l0-57l-224 0q-37 0-59-17q-22-16-22-50q0-20 9-41q9-21 32-52l259-377q17-25 38-38q21-13 48-13q32 0 52 19q19 20 19 59l0 388l37 0q33 0 50 15q17 16 17 46q0 29-17 45q-16 16-50 16l-37 0l0 57q0 38-19 58q-20 20-56 20zm-77-257l0-275l29 0l-213 313l0-38l184 0z"/><path id="age-5" d="m301 11q-51 0-105-13q-54-13-99-39q-23-13-32-32q-8-19-5-39q4-20 16-35q13-14 33-18q19-4 43 9q35 18 72 28q36 10 74 10q38 0 65-13q27-13 41-36q14-23 14-54q0-48-30-77q-31-29-83-29q-26 0-53 9q-26 8-54 29q-10 8-26 15q-16 7-34 7q-31 0-46-15q-15-14-15-42l0-314q0-33 18-50q17-17 49-17l321 0q33 0 50 16q17 17 17 48q0 30-17 47q-17 16-50 16l-239 0l0 191l-38 0q25-31 66-48q41-17 90-17q67 0 117 29q50 28 78 79q28 51 28 118q0 70-32 124q-32 53-92 83q-60 30-142 30z"/><path id="age-6" d="m327 11q-90 0-153-42q-63-42-96-121q-33-79-33-191q0-89 21-158q22-69 62-117q40-48 99-73q58-25 131-25q43 0 87 12q44 12 82 36q20 10 27 29q8 18 5 37q-3 19-15 33q-12 15-31 19q-18 5-42-6q-31-17-60-24q-28-7-55-7q-53 0-90 24q-37 24-56 72q-18 48-18 119l0 65l-14 0q9-48 33-81q25-34 63-52q38-18 84-18q60 0 107 30q46 29 73 81q27 51 27 117q0 70-30 124q-30 55-84 86q-53 31-124 31zm-8-121q31 0 54-14q24-14 37-40q12-26 12-60q0-34-12-59q-13-26-37-40q-23-15-54-15q-31 0-55 15q-23 14-36 40q-13 25-13 59q0 34 13 60q13 26 36 40q24 14 55 14z"/><path id="age-7" d="m175 9q-29 0-47-14q-18-13-21-35q-3-22 12-49l289-536l0 48l-302 0q-33 0-50-17q-17-16-17-47q0-31 17-47q17-17 50-17l381 0q32 0 53 17q20 17 20 48q0 27-7 47q-8 20-20 43l-270 509q-14 26-35 38q-21 12-53 12z"/><path id="age-8" d="m300 11q-84 0-144-24q-60-24-92-70q-32-45-32-109q0-50 20-89q21-39 57-63q36-24 81-30l0 26q-63-14-101-62q-39-47-39-114q0-60 31-103q30-43 87-66q56-23 132-23q77 0 133 23q56 23 87 66q31 43 31 103q0 45-18 82q-17 37-49 61q-31 24-72 31l0-24q69 10 113 59q43 49 43 123q0 64-32 109q-32 46-92 70q-60 24-144 24zm0-119q62 0 94-24q32-24 32-71q0-47-32-71q-32-23-94-23q-62 0-94 23q-32 24-32 71q0 47 32 71q32 24 94 24zm0-308q34 0 58-11q25-11 37-32q13-21 13-48q0-42-28-66q-29-24-80-24q-51 0-79 24q-28 24-28 66q0 42 28 67q28 24 79 24z"/><path id="age-9" d="m242 11q-43 0-87-12q-44-12-82-36q-20-10-27-29q-8-18-5-37q3-19 15-33q12-15 31-19q18-5 42 6q31 17 60 24q28 7 55 7q53 0 90-24q37-24 56-72q18-49 18-119l0-65l14 0q-8 47-33 81q-25 34-63 52q-38 18-84 18q-59 0-106-30q-47-29-74-81q-27-52-27-117q0-70 30-125q30-54 84-85q54-31 124-31q91 0 153 42q63 41 96 120q33 80 33 192q0 89-21 158q-22 69-62 117q-40 48-99 73q-58 25-131 25zm40-379q31 0 55-15q23-14 36-40q13-26 13-59q0-34-13-60q-13-26-36-40q-24-14-55-14q-31 0-54 14q-23 14-37 40q-13 26-13 60q0 33 13 59q14 26 37 40q23 15 54 15z"/><path id="age-dot" d="m131 5q-40 0-63-24q-24-24-24-62q0-37 24-60q23-24 63-24q40 0 63 24q22 23 22 60q0 38-22 62q-23 24-63 24z"/><path id="g1v" d="m236 17q-37 0-69-10q-32-10-55-25q-24-14-38-27q-14-12-18-16q-13-13-22-26q-10-12-10-28q0-13 7-27q8-14 22-29q15-16 28-23q14-8 27-8q18 0 31 11q14 12 29 26q6 5 16 12q10 7 24 12q14 5 33 5q22 0 39-7q17-8 28-22q12-14 18-34q6-19 6-43l0-364q0-21 4-40q4-20 20-32q17-12 54-12q36 0 51 11q15 12 19 29q4 18 4 38l0 377q0 53-18 99q-18 46-51 80q-34 35-79 54q-46 19-100 19z"/><path id="g1w" d="m342 18q-73 0-129-28q-55-28-94-76q-38-48-57-107q-19-59-19-122l0-299q0-20 4-38q3-17 19-28q16-11 53-11q38 0 54 11q16 11 19 28q4 18 4 39l0 298q0 44 15 85q14 42 47 68q33 27 87 27q46 0 79-22q33-22 51-63q18-41 18-96l0-303q0-19 4-35q4-16 20-26q16-11 53-11q37 0 52 12q16 11 19 28q4 18 4 38l0 300q0 63-20 122q-19 59-58 106q-38 47-95 75q-56 28-130 28z"/><path id="g1x" d="m117 9q-36 0-52-11q-15-10-19-28q-4-17-4-38l0-546q0-19 4-36q4-17 20-28q16-11 53-11q25 0 38 3q13 3 19 9q6 5 13 12l225 304l-15 0l226-304q8-9 16-14q8-5 21-8q12-2 35-2q36 0 52 11q16 11 20 28q4 18 4 38l0 546q0 19-4 36q-4 18-20 28q-16 11-53 11q-36 0-52-11q-16-11-20-29q-4-18-4-37l0-356l-149 211q-4 4-11 13q-7 8-19 14q-13 7-34 7q-22 0-35-7q-12-6-19-14q-7-8-12-14l-148-210l0 358q0 19-4 36q-4 18-20 28q-15 11-52 11z"/><path id="g1y" d="m115 10q-36 0-52-11q-16-11-20-29q-3-18-3-37l0-547q0-19 4-37q3-17 19-28q16-11 53-11q38 0 53 11q16 11 19 28q4 18 4 38l0 547q0 19-4 36q-4 18-20 29q-15 11-53 11z"/><path id="g1z" d="m115 9q-35 0-51-11q-16-11-20-28q-4-18-4-37l0-550q0-18 4-35q4-16 21-27q16-10 53-10q36 0 50 8q14 9 25 24l292 401l0-361q0-18 5-35q4-16 20-27q16-10 52-10q37 0 52 11q16 11 20 28q3 18 3 38l0 546q0 19-4 36q-4 17-20 28q-16 11-53 11q-28 0-44-5q-15-4-26-19l-298-404l0 353q0 19-4 36q-4 17-20 28q-16 11-53 11z"/><path id="g20" d="m287 8q-26 0-41-11q-15-10-22-23q-6-12-8-18l-188-545q-13-41-4-62q9-20 52-34q28-10 45-9q18 1 30 14q11 14 20 42l125 370l105-366q3-10 9-23q7-13 22-23q15-10 42-10q31 0 47 11q15 11 21 24q6 13 9 21l106 368l124-372q9-28 20-41q12-14 30-16q19-2 47 8q30 11 42 23q12 12 13 29q0 18-8 46l-188 545q-2 6-8 19q-7 12-22 22q-14 11-42 11q-27 0-43-13q-16-12-23-25q-6-14-8-18l-115-374l-115 373q-1 6-8 19q-7 14-22 26q-16 12-44 12z"/><path id="g21" d="m543 9q-37 0-53-11q-15-11-19-29q-4-18-4-37l0-546q0-19 4-37q4-17 20-28q16-11 53-11q37 0 53 11q15 11 19 28q3 18 3 38l0 546q0 19-3 37q-4 17-20 28q-16 11-53 11zm-424 0q-37 0-53-11q-16-11-19-29q-4-18-4-37l0-546q0-19 4-37q4-17 19-28q16-11 54-11q37 0 52 11q16 11 19 28q4 18 4 38l0 546q0 19-4 37q-3 17-19 28q-16 11-53 11zm52-286l0-132l312 0l0 132l-312 0z"/><path id="g22" d="m367 19q-72 0-136-27q-63-28-111-76q-47-49-75-113q-27-64-27-138q0-75 26-141q27-65 74-115q46-50 108-78q62-28 133-28q72 0 135 28q64 27 111 76q47 49 74 114q28 65 28 141q0 73-27 138q-26 65-73 114q-47 49-108 77q-62 28-132 28zm-5-152q40 0 75-16q35-16 61-43q27-28 42-66q14-37 14-81q0-42-15-79q-15-38-41-66q-27-29-62-45q-34-15-74-15q-39 0-74 15q-34 16-61 45q-26 28-42 65q-15 38-15 81q0 42 16 79q15 38 41 66q27 28 61 44q34 16 74 16z"/><path id="g23" d="m240-218q-34 0-49-9q-14-9-18-25q-3-15-3-32l0-36q0-28 11-44q11-17 28-27q17-11 36-19q19-8 36-17q17-10 28-25q11-15 11-41q0-37-21-56q-21-19-64-19q-20 0-35 6q-15 6-24 15q-9 9-14 20q-8 25-19 38q-10 14-26 17q-16 2-42-7q-28-12-41-22q-13-11-14-26q-1-15 6-39q2-8 10-24q8-16 22-36q15-20 39-38q24-19 58-31q34-11 80-11q65 0 115 27q50 28 79 75q28 48 28 109q0 40-12 71q-12 31-31 52q-19 22-41 36q-21 14-39 21q-18 8-29 10l7-11l0 38q0 16-4 30q-4 14-19 22q-15 8-49 8zm-2 228q-49 0-65-19q-16-19-16-63q0-19 3-38q4-18 21-31q17-12 58-12q51 0 66 19q16 19 16 63q0 19-4 38q-3 19-21 31q-17 12-58 12z"/></defs><style>/*
 * Motion inside the profile SVGs. The classes come from data-anim in
 * cards.mjs. Everything is slow and small, and stops for reduced motion,
 * like the site (docs/DESIGN.md, "모션").
 */

g[class] {
  transform-box: fill-box;
  transform-origin: center;
}

/* JUMIN CHO squashes away and JUMIN WHO? springs in, then back. */
.flip-a,
.flip-b {
  transform-origin: 18% 85%;
  animation: 9s cubic-bezier(0.34, 1.56, 0.64, 1) infinite;
}

.flip-a {
  animation-name: flip-a;
}

.flip-b {
  opacity: 0;
  animation-name: flip-b;
}

@keyframes flip-a {
  0%,
  45% {
    opacity: 1;
    transform: none;
  }
  50%,
  95% {
    opacity: 0;
    transform: translateY(-12px) scale(1.06, 0.7);
  }
  100% {
    opacity: 1;
    transform: none;
  }
}

@keyframes flip-b {
  0%,
  46% {
    opacity: 0;
    transform: translateY(14px) scale(0.92, 0.6);
  }
  52%,
  94% {
    opacity: 1;
    transform: none;
  }
  99%,
  100% {
    opacity: 0;
    transform: translateY(14px) scale(0.92, 0.6);
  }
}

.drift-a,
.drift-b,
.drift-c,
.drift-d {
  animation: 18s ease-in-out infinite alternate;
}

.drift-a {
  animation-name: drift-a;
}

.drift-b {
  animation-name: drift-b;
  animation-duration: 21s;
}

.drift-c {
  animation-name: drift-c;
  animation-duration: 24s;
}

.drift-d {
  animation-name: drift-d;
  animation-duration: 19s;
}

@keyframes drift-a {
  to {
    transform: translate(60px, 36px) scale(1.1);
  }
}

@keyframes drift-b {
  to {
    transform: translate(-50px, 50px) scale(0.9);
  }
}

@keyframes drift-c {
  to {
    transform: translate(70px, -40px) scale(1.08);
  }
}

@keyframes drift-d {
  to {
    transform: translate(-60px, -46px) scale(1.12);
  }
}

.wave {
  transform-origin: 70% 85%;
  animation: wave 3.2s ease-in-out infinite;
}

@keyframes wave {
  0%,
  55%,
  100% {
    transform: rotate(0);
  }
  10%,
  30% {
    transform: rotate(18deg);
  }
  20%,
  40% {
    transform: rotate(-8deg);
  }
}

/* The halo is an uneven blob, so a slow turn reads as a gentle wobble. */
.spin {
  animation: spin 40s linear infinite;
}

@keyframes spin {
  to {
    transform: rotate(360deg);
  }
}

.drift {
  animation: cloud 8s ease-in-out infinite alternate;
}

@keyframes cloud {
  to {
    transform: translate(-8px, 5px);
  }
}

.twinkle {
  animation: twinkle 3.4s ease-in-out infinite;
}

@keyframes twinkle {
  50% {
    opacity: 0.55;
    transform: scale(0.75) rotate(18deg);
  }
}

.bob {
  animation: bob 3.6s ease-in-out infinite;
}

@keyframes bob {
  50% {
    transform: translateY(-6px) rotate(-4deg);
  }
}

@media (prefers-reduced-motion: reduce) {
  g[class] {
    animation: none !important;
  }
}
</style><path d="M42,10H372A30,30 0 0 1 402,40V448A30,30 0 0 1 372,478H42A30,30 0 0 1 12,448V40A30,30 0 0 1 42,10Z" fill="rgb(237,231,250)" filter="url(#shadow-md)"/><g clip-path="url(#c0)"><g opacity="0.32"><path d="M358.96,-64H358.96A103.04,80.96 0 0 1 462,16.96V16.96A77.28,103.04 0 0 1 384.72,120H384.72A106.72,77.28 0 0 1 278,42.72V42.72A80.96,106.72 0 0 1 358.96,-64Z" fill="rgb(194,178,247)"/></g><path d="M58.36,32H58.36A17.64,23.52 0 0 1 76,55.52V55.52A23.1,18.48 0 0 1 52.9,74H52.9A18.9,21 0 0 1 34,53V53A24.36,21 0 0 1 58.36,32Z" fill="rgb(255,253,249)"/><svg xmlns="http://www.w3.org/2000/svg" viewBox="0 0 64 64" x="40" y="38" width="30" height="30" color="rgb(106, 85, 184)">
  
  <defs>
    <linearGradient id="body-1" x1="0.2" y1="0" x2="0.8" y2="1">
      <stop offset="0" stop-color="#ffd0b0"/>
      <stop offset="1" stop-color="#ff9f7e"/>
    </linearGradient>
  </defs>
  <path d="M33 10.5C33 5.5 36.8 2.6 42 3c-.5 4.6-4 7.8-9 7.5z" fill="#8cc084"/>
  <path d="M31.5 10.5c-.4-3.4-3.2-5.2-6.6-4.7.5 3.1 3.2 5 6.6 4.7z" fill="#a8d5a0"/>
  <path d="M32 9.5c14 0 24.5 10.6 24.5 24.4C56.5 47.4 46.2 56 32 56S7.5 47.4 7.5 33.9C7.5 20.1 18 9.5 32 9.5z" fill="url(#body-1)" stroke="#ef8c69" stroke-width="1.5"/>
  <ellipse cx="21.5" cy="20" rx="6.5" ry="3.8" transform="rotate(-28 21.5 20)" fill="#fff" opacity=".5"/>
  <ellipse cx="17" cy="40.5" rx="4.4" ry="2.7" fill="#ff7f94" opacity=".55"/>
  <ellipse cx="47" cy="40.5" rx="4.4" ry="2.7" fill="#ff7f94" opacity=".55"/>
  <ellipse cx="23.5" cy="33.5" rx="3.1" ry="3.7" fill="#45352b"/>
  <ellipse cx="40.5" cy="33.5" rx="3.1" ry="3.7" fill="#45352b"/>
  <circle cx="24.6" cy="32.1" r="1.1" fill="#fff"/>
  <circle cx="41.6" cy="32.1" r="1.1" fill="#fff"/>
  <path d="M28 40c1 1.7 3 1.7 4 0 1 1.7 3 1.7 4 0" fill="none" stroke="#45352b" stroke-width="2" stroke-linecap="round" stroke-linejoin="round"/>
</svg><g fill="rgb(69,53,43)" transform="translate(88 60.25) scale(0.022)"><use href="#g2" x="0"/><use href="#g3" x="703"/><use href="#g4" x="1350"/><use href="#g5" x="2154"/><use href="#g6" x="2706"/><use href="#g4" x="3007"/><use href="#g7" x="3570"/><use href="#g8" x="4133"/><use href="#g9" x="4638"/></g><path d="M50,90H50A16,16 0 0 1 66,106V106A16,16 0 0 1 50,122H50A16,16 0 0 1 34,106V106A16,16 0 0 1 50,90Z" fill="rgb(255,253,249)"/><svg xmlns="http://www.w3.org/2000/svg" width="16" height="16" viewBox="0 0 24 24" fill="none" stroke="currentColor" stroke-width="2" stroke-linecap="round" stroke-linejoin="round" x="42" y="98" color="rgb(106, 85, 184)"><path d="M11.017 2.814a1 1 0 0 1 1.966 0l1.051 5.558a2 2 0 0 0 1.594 1.594l5.558 1.051a1 1 0 0 1 0 1.966l-5.558 1.051a2 2 0 0 0-1.594 1.594l-1.051 5.558a1 1 0 0 1-1.966 0l-1.051-5.558a2 2 0 0 0-1.594-1.594l-5.558-1.051a1 1 0 0 1 0-1.966l5.558-1.051a2 2 0 0 0 1.594-1.594z"/><path d="M20 2v4"/><path d="M22 4h-4"/><circle cx="4" cy="20" r="2"/></svg><g fill="rgb(107,87,73)" transform="translate(78 103) scale(0.0125)"><use href="#gb" x="0"/><use href="#gc" x="673"/><use href="#gd" x="1249"/><use href="#ge" x="1563"/></g><g fill="rgb(69,53,43)" transform="translate(78 122.5) scale(0.015)"><use href="#gf" x="0"/><use href="#gg" x="736"/><use href="#gh" x="1268"/><use href="#gi" x="1933"/><use href="#gj" x="2470"/><use href="#gi" x="2954"/><use href="#gk" x="3491"/><use href="#gl" x="4028"/><use href="#gm" x="4394"/><use href="#gn" x="4861"/><use href="#gi" x="5437"/><use href="#gl" x="5974"/><use href="#go" x="6611"/><use href="#gp" x="7112"/><use href="#gn" x="7754"/><use href="#gq" x="8330"/><use href="#gr" x="8567"/><use href="#gq" x="9281"/><use href="#gs" x="9782"/><use href="#gt" x="10401"/><use href="#gu" x="10766"/><use href="#gv" x="11335"/><use href="#gi" x="11926"/><use href="#gw" x="12463"/><use href="#gt" x="13039"/></g><path d="M50,143.25H50A16,16 0 0 1 66,159.25V159.25A16,16 0 0 1 50,175.25H50A16,16 0 0 1 34,159.25V159.25A16,16 0 0 1 50,143.25Z" fill="rgb(255,253,249)"/><svg xmlns="http://www.w3.org/2000/svg" width="16" height="16" viewBox="0 0 24 24" fill="none" stroke="currentColor" stroke-width="2" stroke-linecap="round" stroke-linejoin="round" x="42" y="151.25" color="rgb(47, 107, 150)"><path d="M10 18v-7"/><path d="M11.119 2.205a2 2 0 0 1 1.762 0l7.84 3.846A.5.5 0 0 1 20.5 7h-17a.5.5 0 0 1-.22-.949z"/><path d="M14 18v-7"/><path d="M18 18v-7"/><path d="M3 22h18"/><path d="M6 18v-7"/></svg><g fill="rgb(107,87,73)" transform="translate(78 156.25) scale(0.0125)"><use href="#gy" x="0"/><use href="#gz" x="734"/><use href="#g10" x="1075"/><use href="#gd" x="1686"/><use href="#g11" x="2005"/><use href="#g12" x="2260"/><use href="#g13" x="2807"/><use href="#g11" x="3204"/><use href="#gc" x="3459"/><use href="#g14" x="4035"/></g><g fill="rgb(69,53,43)" transform="translate(78 175.75) scale(0.015)"><use href="#g15" x="0"/><use href="#g16" x="641"/><use href="#g17" x="1206"/><use href="#g18" x="2072"/><use href="#gu" x="2663"/><use href="#gt" x="3232"/><use href="#gi" x="3592"/><use href="#gl" x="4129"/><use href="#gs" x="4766"/><use href="#gm" x="5388"/><use href="#g19" x="5855"/><use href="#gi" x="6098"/><use href="#gw" x="6635"/><use href="#gm" x="7211"/><use href="#gi" x="7668"/><use href="#g1a" x="8205"/></g><g fill="rgb(69,53,43)" transform="translate(78 197.5) scale(0.015)"><use href="#g1b" x="0"/><use href="#gi" x="338"/><use href="#g16" x="875"/><use href="#gw" x="1440"/><use href="#g1c" x="2016"/><use href="#gu" x="2607"/><use href="#g1d" x="3176"/><use href="#g1e" x="3956"/><use href="#gk" x="4699"/><use href="#gt" x="5236"/><use href="#g19" x="5610"/><use href="#g16" x="5853"/><use href="#gw" x="6418"/><use href="#gk" x="6994"/><use href="#g1f" x="7531"/><use href="#g1g" x="8101"/><use href="#gw" x="8834"/><use href="#g19" x="9410"/><use href="#g1h" x="9653"/><use href="#gi" x="10164"/><use href="#gl" x="10701"/><use href="#gj" x="11069"/><use href="#g19" x="11553"/><use href="#gt" x="11796"/><use href="#g1i" x="12168"/></g><g fill="rgb(69,53,43)" transform="translate(78 219.25) scale(0.015)"><use href="#g1e" x="0"/><use href="#gk" x="743"/><use href="#gt" x="1280"/><use href="#gu" x="1645"/><use href="#gl" x="2214"/><use href="#gk" x="2582"/><use href="#g1f" x="3119"/><use href="#g1j" x="3689"/><use href="#gk" x="4241"/><use href="#gw" x="4778"/><use href="#g1k" x="5354"/><use href="#gu" x="5948"/><use href="#gk" x="6517"/><use href="#g1k" x="7054"/><use href="#gi" x="7648"/><use href="#g1j" x="8449"/><use href="#gi" x="8996"/><use href="#gk" x="9533"/><use href="#gl" x="10070"/><use href="#gw" x="10443"/><use href="#g19" x="11019"/><use href="#gw" x="11262"/><use href="#g1k" x="11838"/><use href="#g1j" x="12696"/><use href="#gk" x="13248"/><use href="#g1c" x="13785"/></g><path d="M50,240H50A16,16 0 0 1 66,256V256A16,16 0 0 1 50,272H50A16,16 0 0 1 34,256V256A16,16 0 0 1 50,240Z" fill="rgb(255,253,249)"/><svg xmlns="http://www.w3.org/2000/svg" width="16" height="16" viewBox="0 0 24 24" fill="none" stroke="currentColor" stroke-width="2" stroke-linecap="round" stroke-linejoin="round" x="42" y="248" color="rgb(63, 116, 71)"><path d="M20 10c0 4.993-5.539 10.193-7.399 11.799a1 1 0 0 1-1.202 0C9.539 20.193 4 14.993 4 10a8 8 0 0 1 16 0"/><circle cx="12" cy="10" r="3"/></svg><g fill="rgb(107,87,73)" transform="translate(78 253) scale(0.0125)"><use href="#g1m" x="0"/><use href="#gc" x="557"/><use href="#g1n" x="1133"/><use href="#g12" x="1602"/><use href="#g13" x="2149"/><use href="#g11" x="2546"/><use href="#gc" x="2801"/><use href="#g14" x="3377"/></g><g clip-path="url(#c1o)"><svg xmlns="http://www.w3.org/2000/svg" viewBox="0 0 24 24" x="78" y="258.375" width="17" height="17" color="rgb(69, 53, 43)"><rect width="24" height="24" fill="#ffffff"/><g transform="translate(12 12)" stroke="#000000" stroke-width="0.9"><g transform="rotate(-56.31)"><path d="M-2.5-7.45h5M-2.5-8.8h5M-2.5-10.15h5"/><path d="M-2.5 7.45h2.25m.5 0h2.25M-2.5 8.8h2.25m.5 0h2.25M-2.5 10.15h2.25m.5 0h2.25"/></g><g transform="rotate(-123.69)"><path d="M-2.5-7.45h5M-2.5-8.8h2.25m.5 0h2.25M-2.5-10.15h5"/><path d="M-2.5 7.45h2.25m.5 0h2.25M-2.5 8.8h5M-2.5 10.15h2.25m.5 0h2.25"/></g><g transform="rotate(-56.31)" stroke="none"><circle r="5.6" fill="#cd2e3a"/><path d="M0-5.6A2.8 2.8 0 0 0 0 0a2.8 2.8 0 0 1 0 5.6A5.6 5.6 0 0 1 0-5.6z" fill="#0047a0"/></g></g></svg><path d="M86.5,258.88H86.5A8,8 0 0 1 94.5,266.88V266.88A8,8 0 0 1 86.5,274.88H86.5A8,8 0 0 1 78.5,266.88V266.88A8,8 0 0 1 86.5,258.88Z" fill="none" stroke="rgb(124,76,44)" stroke-opacity="0.2" stroke-width="1"/></g><g fill="rgb(69,53,43)" transform="translate(101 268.38) scale(0.015)"><use href="#g1b" x="0"/><use href="#gi" x="338"/><use href="#g16" x="875"/><use href="#gw" x="1440"/><use href="#g1q" x="2016"/><use href="#gu" x="2262"/><use href="#g1a" x="2831"/><use href="#gh" x="3332"/><use href="#gi" x="3997"/><use href="#g18" x="4534"/><use href="#gu" x="5125"/><use href="#g1c" x="5694"/><use href="#g1f" x="6285"/><use href="#g19" x="6591"/><use href="#gm" x="6834"/><use href="#g16" x="7565"/><use href="#g1r" x="8125"/><use href="#g1s" x="8736"/><use href="#g16" x="9367"/><use href="#gl" x="9932"/><use href="#gi" x="10298"/><use href="#gk" x="10835"/></g><path d="M50,297.63H50A16,16 0 0 1 66,313.63V313.63A16,16 0 0 1 50,329.63H50A16,16 0 0 1 34,313.63V313.63A16,16 0 0 1 50,297.63Z" fill="rgb(255,253,249)"/><svg xmlns="http://www.w3.org/2000/svg" width="16" height="16" viewBox="0 0 24 24" fill="none" stroke="currentColor" stroke-width="2" stroke-linecap="round" stroke-linejoin="round" x="42" y="305.625" color="rgb(163, 61, 92)"><path d="M2 9.5a5.5 5.5 0 0 1 9.591-3.676.56.56 0 0 0 .818 0A5.49 5.49 0 0 1 22 9.5c0 2.29-1.5 4-3 5.5l-5.492 5.313a2 2 0 0 1-3 .019L5 15c-1.5-1.5-3-3.2-3-5.5"/></svg><g fill="rgb(107,87,73)" transform="translate(78 310.63) scale(0.0125)"><use href="#gy" x="0"/><use href="#g1u" x="739"/><use href="#ge" x="1343"/></g><g id="age" data-digit="600" data-dot="260" fill="rgb(163,61,92)" transform="translate(78 331.13) scale(0.016)"><use href="#age-2" x="0"/><use href="#age-8" x="600"/><use href="#age-dot" x="1200"/><use href="#age-2" x="1460"/><use href="#age-1" x="2060"/><use href="#age-4" x="2660"/><use href="#age-6" x="3260"/></g><g fill="rgb(107,87,73)" transform="translate(143.73 331.13) scale(0.015)"><use href="#g1i" x="0"/><use href="#gi" x="511"/><use href="#gk" x="1048"/><use href="#gl" x="1585"/><use href="#gj" x="1953"/></g><path d="M202.02,391.5H287.75A14.25,14.25 0 0 1 302,405.75V405.75A14.25,14.25 0 0 1 287.75,420H202.02A14.25,14.25 0 0 1 187.77,405.75V405.75A14.25,14.25 0 0 1 202.02,391.5Z" fill="rgb(69,53,43)"/><g fill="rgb(255,248,240)" transform="translate(199.77 410.5) scale(0.015)"><use href="#g1v" x="0"/><use href="#g1w" x="536"/><use href="#g1x" x="1224"/><use href="#g1y" x="2038"/><use href="#g1z" x="2270"/><use href="#g20" x="3194"/><use href="#g21" x="4147"/><use href="#g22" x="4809"/><use href="#g23" x="5534"/></g><g class="bob"><svg xmlns="http://www.w3.org/2000/svg" viewBox="0 0 64 64" x="306" y="386" width="78" height="78" color="rgb(69, 53, 43)">
  
  <defs>
    <linearGradient id="body-76" x1="0.2" y1="0" x2="0.8" y2="1">
      <stop offset="0" stop-color="#ffd0b0"/>
      <stop offset="1" stop-color="#ff9f7e"/>
    </linearGradient>
  </defs>
  <path d="M33 10.5C33 5.5 36.8 2.6 42 3c-.5 4.6-4 7.8-9 7.5z" fill="#8cc084"/>
  <path d="M31.5 10.5c-.4-3.4-3.2-5.2-6.6-4.7.5 3.1 3.2 5 6.6 4.7z" fill="#a8d5a0"/>
  <path d="M32 9.5c14 0 24.5 10.6 24.5 24.4C56.5 47.4 46.2 56 32 56S7.5 47.4 7.5 33.9C7.5 20.1 18 9.5 32 9.5z" fill="url(#body-76)" stroke="#ef8c69" stroke-width="1.5"/>
  <ellipse cx="21.5" cy="20" rx="6.5" ry="3.8" transform="rotate(-28 21.5 20)" fill="#fff" opacity=".5"/>
  <ellipse cx="17" cy="40.5" rx="4.4" ry="2.7" fill="#ff7f94" opacity=".55"/>
  <ellipse cx="47" cy="40.5" rx="4.4" ry="2.7" fill="#ff7f94" opacity=".55"/>
  <ellipse cx="23.5" cy="33.5" rx="3.1" ry="3.7" fill="#45352b"/>
  <ellipse cx="40.5" cy="33.5" rx="3.1" ry="3.7" fill="#45352b"/>
  <circle cx="24.6" cy="32.1" r="1.1" fill="#fff"/>
  <circle cx="41.6" cy="32.1" r="1.1" fill="#fff"/>
  <path d="M28 40c1 1.7 3 1.7 4 0 1 1.7 3 1.7 4 0" fill="none" stroke="#45352b" stroke-width="2" stroke-linecap="round" stroke-linejoin="round"/>
</svg></g></g></svg>